<svg
  xmlns="http://www.w3.org/2000/svg"
  width="24"
  height="24"
  viewBox="0 0 24 24"
  fill="none"
  stroke="#11110f"
  stroke-width="1.5"
  stroke-linecap="round"
  stroke-linejoin="round"
>
  <style>
    .contrast-outline {
      display: none;
    }

    @media (prefers-color-scheme: dark) {
      .contrast-outline {
        display: inline;
      }
    }
  </style>
  <path
    class="contrast-outline"
    d="M2 13a2 2 0 0 0 2-2V7a2 2 0 0 1 4 0v13a2 2 0 0 0 4 0V4a2 2 0 0 1 4 0v13a2 2 0 0 0 4 0v-4a2 2 0 0 1 2-2"
    stroke="#f5f4f0"
    stroke-width="4"
  />
  <path d="M2 13a2 2 0 0 0 2-2V7a2 2 0 0 1 4 0v13a2 2 0 0 0 4 0V4a2 2 0 0 1 4 0v13a2 2 0 0 0 4 0v-4a2 2 0 0 1 2-2" />
</svg>
